<svg width="18" height="18" viewBox="0 0 18 18" fill="none" xmlns="http://www.w3.org/2000/svg">
<path d="M4.09681 3.32443C5.41155 2.18763 7.1254 1.49997 8.99988 1.49997C13.142 1.49997 16.4999 4.85783 16.4999 8.99997C16.4999 10.602 15.9975 12.0868 15.1418 13.3054L12.7499 8.99997H14.9999C14.9999 5.68626 12.3136 2.99997 8.99988 2.99997C7.38724 2.99997 5.92321 3.63617 4.84505 4.67128L4.09681 3.32443ZM13.9029 14.6755C12.5882 15.8123 10.8744 16.5 8.99988 16.5C4.85774 16.5 1.49988 13.1421 1.49988 8.99997C1.49988 7.39786 2.00222 5.91309 2.85798 4.69455L5.24988 8.99997H2.99988C2.99988 12.3137 5.68617 15 8.99988 15C10.6125 15 12.0765 14.3637 13.1547 13.3287L13.9029 14.6755Z" fill="#717680"/>
</svg>
