<svg width="17" height="16" viewBox="0 0 17 16" fill="none" xmlns="http://www.w3.org/2000/svg">
<path d="M8.33335 14.6666C4.65145 14.6666 1.66669 11.6818 1.66669 7.99998C1.66669 4.31808 4.65145 1.33331 8.33335 1.33331C12.0152 1.33331 15 4.31808 15 7.99998C15 11.6818 12.0152 14.6666 8.33335 14.6666ZM8.33335 13.3333C11.2789 13.3333 13.6667 10.9455 13.6667 7.99998C13.6667 5.05446 11.2789 2.66665 8.33335 2.66665C5.38783 2.66665 3.00002 5.05446 3.00002 7.99998C3.00002 10.9455 5.38783 13.3333 8.33335 13.3333ZM9.00002 6.99998V9.99998H9.66669V11.3333H7.00002V9.99998H7.66669V8.33331H7.00002V6.99998H9.00002ZM9.33335 5.33331C9.33335 5.8856 8.88562 6.33331 8.33335 6.33331C7.78109 6.33331 7.33335 5.8856 7.33335 5.33331C7.33335 4.78103 7.78109 4.33331 8.33335 4.33331C8.88562 4.33331 9.33335 4.78103 9.33335 5.33331Z" fill="#717680"/>
</svg>
