<svg width="18" height="18" viewBox="0 0 18 18" fill="none" xmlns="http://www.w3.org/2000/svg">
<path d="M8.99988 0.375061C13.7634 0.375061 17.6249 4.23661 17.6249 9.00006C17.6249 9.25274 17.614 9.50286 17.5927 9.75006H16.4628C16.0866 13.54 12.8889 16.5001 8.99988 16.5001C4.85774 16.5001 1.49988 13.1422 1.49988 9.00006C1.49988 5.11105 4.45989 1.91339 8.24988 1.5371V0.407218C8.49708 0.385927 8.7472 0.375061 8.99988 0.375061ZM8.24988 3.04648C5.29015 3.41555 2.99988 5.94035 2.99988 9.00006C2.99988 12.3138 5.68617 15.0001 8.99988 15.0001C12.0596 15.0001 14.5844 12.7098 14.9535 9.75006H8.24988V3.04648ZM9.74988 1.91406V8.25006H16.0859C15.7369 4.91404 13.0859 2.26305 9.74988 1.91406Z" fill="#717680"/>
</svg>
