<svg width="18" height="18" viewBox="0 0 18 18" fill="none" xmlns="http://www.w3.org/2000/svg">
<path d="M12.7003 6.72371C12.3195 3.77672 9.80062 1.5 6.75 1.5C3.43629 1.5 0.75 4.18629 0.75 7.5C0.75 8.9193 1.2428 10.2235 2.06663 11.2508C2.67263 12.0065 3.00025 12.8439 3.00019 13.7296L3 16.5H9.75L9.75075 14.25H11.25C12.0785 14.25 12.75 13.5785 12.75 12.75V10.5533L14.2195 9.92377C14.4769 9.81353 14.4993 9.55253 14.3882 9.37778L12.7003 6.72371ZM2.25 7.5C2.25 5.01472 4.26472 3 6.75 3C9.01822 3 10.9249 4.68856 11.2126 6.91588L11.2554 7.24696L12.4123 9.06608L11.25 9.56392V12.75H8.25128L8.25052 15H4.5001L4.50019 13.7297C4.50027 12.5004 4.05724 11.3355 3.23684 10.3124C2.60114 9.51968 2.25 8.53867 2.25 7.5ZM15.8651 13.5768L14.617 12.7447C15.3327 11.6732 15.75 10.3853 15.75 9.00008C15.75 7.61475 15.3327 6.32692 14.617 5.25541L15.8651 4.42328C16.74 5.73289 17.25 7.30691 17.25 9.00008C17.25 10.6932 16.74 12.2671 15.8651 13.5768Z" fill="#717680"/>
</svg>
