<svg width="18" height="18" viewBox="0 0 18 18" fill="none" xmlns="http://www.w3.org/2000/svg">
<path d="M16.5038 5.24988H17.2538V12.7499H16.5038V14.9999C16.5038 15.4141 16.168 15.7499 15.7538 15.7499H2.25378C1.83957 15.7499 1.50378 15.4141 1.50378 14.9999V2.99988C1.50378 2.58566 1.83957 2.24988 2.25378 2.24988H15.7538C16.168 2.24988 16.5038 2.58566 16.5038 2.99988V5.24988ZM15.0038 12.7499H10.5038C8.43275 12.7499 6.75378 11.0709 6.75378 8.99989C6.75378 6.9288 8.43275 5.24988 10.5038 5.24988H15.0038V3.74988H3.00378V14.2499H15.0038V12.7499ZM15.7538 11.2499V6.74988H10.5038C9.26112 6.74988 8.2538 7.75721 8.2538 8.99989C8.2538 10.2425 9.26112 11.2499 10.5038 11.2499H15.7538ZM10.5038 8.24989H12.7538V9.74989H10.5038V8.24989Z" fill="#717680"/>
</svg>
